<svg xmlns="http://www.w3.org/2000/svg" viewBox="0 0 800 500" fill="none">
  <!-- Background -->
  <rect width="800" height="500" fill="#161b22"/>

  <!-- Grid lines -->
  <g stroke="#30363d" stroke-width="1">
    <line x1="0" y1="100" x2="800" y2="100"/>
    <line x1="0" y1="200" x2="800" y2="200"/>
    <line x1="0" y1="300" x2="800" y2="300"/>
    <line x1="0" y1="400" x2="800" y2="400"/>
    <line x1="100" y1="0" x2="100" y2="500"/>
    <line x1="200" y1="0" x2="200" y2="500"/>
    <line x1="300" y1="0" x2="300" y2="500"/>
    <line x1="400" y1="0" x2="400" y2="500"/>
    <line x1="500" y1="0" x2="500" y2="500"/>
    <line x1="600" y1="0" x2="600" y2="500"/>
    <line x1="700" y1="0" x2="700" y2="500"/>
  </g>

  <!-- Price labels -->
  <g fill="#8b949e" font-family="monospace" font-size="12">
    <text x="760" y="105">1.0850</text>
    <text x="760" y="205">1.0800</text>
    <text x="760" y="305">1.0750</text>
    <text x="760" y="405">1.0700</text>
  </g>

  <!-- Candlesticks -->
  <!-- Green candles (bullish) -->
  <g>
    <!-- Candle 1 -->
    <line x1="80" y1="350" x2="80" y2="280" stroke="#00d26a" stroke-width="1"/>
    <rect x="72" y="300" width="16" height="40" fill="#00d26a"/>

    <!-- Candle 2 -->
    <line x1="120" y1="320" x2="120" y2="250" stroke="#00d26a" stroke-width="1"/>
    <rect x="112" y="270" width="16" height="35" fill="#00d26a"/>

    <!-- Candle 3 (red) -->
    <line x1="160" y1="290" x2="160" y2="230" stroke="#ff4757" stroke-width="1"/>
    <rect x="152" y="240" width="16" height="30" fill="#ff4757"/>

    <!-- Candle 4 -->
    <line x1="200" y1="280" x2="200" y2="200" stroke="#00d26a" stroke-width="1"/>
    <rect x="192" y="220" width="16" height="45" fill="#00d26a"/>

    <!-- Candle 5 -->
    <line x1="240" y1="240" x2="240" y2="170" stroke="#00d26a" stroke-width="1"/>
    <rect x="232" y="185" width="16" height="40" fill="#00d26a"/>

    <!-- Candle 6 (red) -->
    <line x1="280" y1="210" x2="280" y2="160" stroke="#ff4757" stroke-width="1"/>
    <rect x="272" y="170" width="16" height="25" fill="#ff4757"/>

    <!-- Candle 7 -->
    <line x1="320" y1="190" x2="320" y2="130" stroke="#00d26a" stroke-width="1"/>
    <rect x="312" y="145" width="16" height="35" fill="#00d26a"/>

    <!-- Candle 8 -->
    <line x1="360" y1="160" x2="360" y2="100" stroke="#00d26a" stroke-width="1"/>
    <rect x="352" y="115" width="16" height="30" fill="#00d26a"/>

    <!-- More candles -->
    <line x1="400" y1="130" x2="400" y2="80" stroke="#00d26a" stroke-width="1"/>
    <rect x="392" y="90" width="16" height="25" fill="#00d26a"/>

    <line x1="440" y1="110" x2="440" y2="60" stroke="#00d26a" stroke-width="1"/>
    <rect x="432" y="70" width="16" height="30" fill="#00d26a"/>
  </g>

  <!-- Entry point marker -->
  <circle cx="80" cy="340" r="8" fill="#00d26a" opacity="0.3"/>
  <circle cx="80" cy="340" r="4" fill="#00d26a"/>
  <text x="90" y="345" fill="#00d26a" font-size="12" font-weight="bold">BUY 1.0720</text>

  <!-- Take profit line -->
  <line x1="80" y1="80" x2="500" y2="80" stroke="#00d26a" stroke-width="2" stroke-dasharray="5,5"/>
  <text x="510" y="85" fill="#00d26a" font-size="12" font-weight="bold">TP: 1.0860</text>

  <!-- Stop loss line -->
  <line x1="80" y1="380" x2="200" y2="380" stroke="#ff4757" stroke-width="2" stroke-dasharray="5,5"/>
  <text x="210" y="385" fill="#ff4757" font-size="12" font-weight="bold">SL: 1.0680</text>

  <!-- Profit box -->
  <rect x="550" y="30" width="220" height="80" rx="8" fill="#0d1117" stroke="#00d26a" stroke-width="2"/>
  <text x="570" y="55" fill="#8b949e" font-size="12">Profit</text>
  <text x="570" y="85" fill="#00d26a" font-size="28" font-weight="bold">+140 pips</text>
  <text x="570" y="100" fill="#00d26a" font-size="12">+$1,400 USD</text>

  <!-- Trade info -->
  <rect x="20" y="440" width="760" height="50" rx="4" fill="#0d1117"/>
  <text x="40" y="470" fill="#8b949e" font-size="12">EUR/USD | Long Position | Risk: 1% | RR: 1:3.5 | Duration: 4h 23m</text>
</svg>
